# xmcd
#
# Track frame offsets:
#	150
#	12160
#	29628
#	47402
#	60866
#	78263
#	94343
#	114354
#	137750
#	154183
#
# Disc length: 2277 seconds
#
# Revision: 0
# Processed by: cddbd v1.5.2PL0 Copyright (c) Steve Scherf et al.
# Submitted via: EasyCDDAExtractor 10.0.6.1
#
DISCID=7208e30a
DTITLE=Circo - El Cielo De Tu Boca
DYEAR=1900
DGENRE=
TTITLE0=Un Accidente
TTITLE1=Cascaron
TTITLE2=Ser Salmon
TTITLE3=Me saben a miel
TTITLE4=Ni tu ni nadie
TTITLE5=Amelia
TTITLE6=Capullo
TTITLE7=Vocacion o Despedida
TTITLE8=Arbol cosmico
TTITLE9=Materia santa
EXTD=
EXTT0=
EXTT1=
EXTT2=
EXTT3=
EXTT4=
EXTT5=
EXTT6=
EXTT7=
EXTT8=
EXTT9=
PLAYORDER=
